<?xml version="1.0" encoding="UTF-8" standalone="no"?>
<svg width="27px" height="55px" viewBox="0 0 27 55" version="1.1" xmlns="http://www.w3.org/2000/svg" xmlns:xlink="http://www.w3.org/1999/xlink">
    <!-- Generator: Sketch 40.3 (33839) - http://www.bohemiancoding.com/sketch -->
    <title>Volvo</title>
    <desc>Created with Sketch.</desc>
    <defs></defs>
    <g id="Page-1" stroke="none" stroke-width="1" fill="none" fill-rule="evenodd">
        <g id="Volvo">
            <rect id="Rectangle" fill="#700925" x="2" y="14" width="23" height="41"></rect>
            <rect id="Rectangle" fill="#700925" x="1" y="6" width="1" height="43"></rect>
            <rect id="Rectangle" fill="#700925" x="25" y="6" width="1" height="43"></rect>
            <rect id="Rectangle" fill="#191919" x="2" y="54" width="23" height="1"></rect>
            <rect id="Rectangle" fill="#333333" x="1" y="53" width="25" height="1"></rect>
            <rect id="Rectangle" fill="#333333" x="1" y="48" width="1" height="5"></rect>
            <rect id="Rectangle" fill="#333333" x="25" y="48" width="1" height="5"></rect>
            <rect id="Rectangle" fill="#333333" x="24" y="51" width="1" height="2"></rect>
            <rect id="Rectangle" fill="#333333" x="2" y="51" width="1" height="2"></rect>
            <rect id="Rectangle" fill="#191919" x="6" y="40" width="15" height="8"></rect>
            <rect id="Rectangle" fill="#191919" x="21" y="42" width="1" height="6"></rect>
            <rect id="Rectangle" fill="#191919" x="22" y="44" width="1" height="4"></rect>
            <rect id="Rectangle" fill="#191919" x="5" y="42" width="1" height="6"></rect>
            <rect id="Rectangle" fill="#191919" x="21" y="42" width="1" height="6"></rect>
            <rect id="Rectangle" fill="#191919" x="5" y="42" width="1" height="6"></rect>
            <rect id="Rectangle" fill="#191919" x="4" y="44" width="1" height="4"></rect>
            <rect id="Rectangle" fill="#7F7F7F" x="10" y="49" width="7" height="3"></rect>
            <rect id="Rectangle" fill="#700925" x="24" y="2" width="1" height="12"></rect>
            <rect id="Rectangle" fill="#700925" x="2" y="2" width="1" height="12"></rect>
            <rect id="Rectangle" fill="#700925" x="23" y="1.25" width="1" height="12.75"></rect>
            <rect id="Rectangle" fill="#700925" x="22" y="1" width="1" height="13"></rect>
            <rect id="Rectangle" fill="#700925" x="3" y="1.25" width="1" height="12.75"></rect>
            <rect id="Rectangle" fill="#700925" x="4" y="1" width="1" height="13"></rect>
            <rect id="Rectangle" fill="#700925" x="5" y="1" width="17" height="13"></rect>
            <rect id="Rectangle" fill="#191919" x="6" y="17" width="15" height="4"></rect>
            <rect id="Rectangle" fill="#191919" x="22" y="17" width="1" height="2"></rect>
            <rect id="Rectangle" fill="#191919" x="21" y="17" width="1" height="3"></rect>
            <rect id="Rectangle" fill="#191919" x="5" y="17" width="1" height="3"></rect>
            <rect id="Rectangle" fill="#191919" x="4" y="17" width="1" height="2"></rect>
            <rect id="Rectangle" fill="#191919" x="3" y="0" width="21" height="1"></rect>
            <rect id="Rectangle" fill="#333333" x="2" y="1" width="23" height="1"></rect>
            <rect id="Rectangle" fill="#333333" x="23" y="1" width="1" height="2"></rect>
            <rect id="Rectangle" fill="#333333" x="3" y="1" width="1" height="2"></rect>
            <rect id="Rectangle" fill="#333333" x="22" y="1" width="1" height="1"></rect>
            <rect id="Rectangle" fill="#333333" x="24" y="2" width="1" height="2"></rect>
            <rect id="Rectangle" fill="#333333" x="4" y="1" width="1" height="1"></rect>
            <rect id="Rectangle" fill="#333333" x="2" y="2" width="1" height="2"></rect>
            <rect id="Rectangle" fill="#700925" x="26" y="32" width="1" height="10"></rect>
            <rect id="Rectangle" fill="#700925" x="0" y="32" width="1" height="10"></rect>
            <rect id="Rectangle" fill="#191919" x="4" y="22" width="2" height="6"></rect>
            <rect id="Rectangle" fill="#191919" x="4" y="29" width="2" height="6"></rect>
            <rect id="Rectangle" fill="#191919" x="4" y="36" width="2" height="3"></rect>
            <rect id="Rectangle" fill="#191919" x="4" y="39" width="1" height="2"></rect>
            <rect id="Rectangle" fill="#191919" x="4" y="21" width="1" height="1"></rect>
            <rect id="Rectangle" fill="#191919" x="21" y="22" width="2" height="6"></rect>
            <rect id="Rectangle" fill="#191919" x="21" y="29" width="2" height="6"></rect>
            <rect id="Rectangle" fill="#191919" x="21" y="36" width="2" height="3"></rect>
            <rect id="Rectangle" fill="#191919" x="22" y="39" width="1" height="2"></rect>
            <rect id="Rectangle" fill="#191919" x="22" y="21" width="1" height="1"></rect>
            <rect id="Rectangle" fill="#DB4437" x="22" y="52" width="2" height="1"></rect>
            <rect id="Rectangle" fill="#DB4437" x="23" y="49" width="2" height="1"></rect>
            <rect id="Rectangle" fill="#F6A623" x="23" y="51" width="2" height="1"></rect>
            <rect id="Rectangle" fill="#FCFCFC" x="23" y="50" width="2" height="1"></rect>
            <rect id="Rectangle" fill="#DB4437" x="3" y="52" width="2" height="1"></rect>
            <rect id="Rectangle" fill="#DB4437" x="2" y="49" width="2" height="1"></rect>
            <rect id="Rectangle" fill="#F6A623" x="2" y="51" width="2" height="1"></rect>
            <rect id="Rectangle" fill="#FCFCFC" x="2" y="50" width="2" height="1"></rect>
            <rect id="Rectangle" fill="#430515" x="21" y="5" width="1" height="5"></rect>
            <rect id="Rectangle" fill="#430515" x="20" y="8" width="1" height="5"></rect>
            <rect id="Rectangle" fill="#430515" x="19" y="11" width="1" height="5"></rect>
            <rect id="Rectangle" fill="#430515" x="5" y="5" width="1" height="5"></rect>
            <rect id="Rectangle" fill="#430515" x="6" y="8" width="1" height="5"></rect>
            <rect id="Rectangle" fill="#430515" x="7" y="11" width="1" height="5"></rect>
        </g>
    </g>
</svg>
